# xmcd
#
# Track frame offsets:
#	150
#	14190
#	28826
#	37687
#	54658
#	70626
#	83628
#	96650
#	110393
#	121300
#	137241
#	148164
#	163974
#	175870
#	196098
#
# Disc length: 2791 seconds
# Revision: 1
# Processed by: cddbd v1.5.2PL0 Copyright (c) Steve Scherf et al.
# Submitted via: dBpowerAMP V12.0
#
DISCID=d50ae50f
DTITLE=Foghorn Duo - Lonesome Song
DYEAR=2012
DGENRE=Country
TTITLE0=My Horses Ain't Hungry
TTITLE1=One More Hill
TTITLE2=Saddle Old Mike
TTITLE3=Old Love Letters
TTITLE4=New Orleans/Rock Andy
TTITLE5=Lonesome Song
TTITLE6=Little Black Train
TTITLE7=Evening Prayer Blues
TTITLE8=Pretty Little Cat
TTITLE9=Girl In the Blue Velvet Band
TTITLE10=Good Bye I'm Gone
TTITLE11=Greenback Dollar
TTITLE12=Green Valley Waltz
TTITLE13=Billy Gray
TTITLE14=Wild Hog In the Woods
EXTD=
EXTT0=
EXTT1=
EXTT2=
EXTT3=
EXTT4=
EXTT5=
EXTT6=
EXTT7=
EXTT8=
EXTT9=
EXTT10=
EXTT11=
EXTT12=
EXTT13=
EXTT14=
PLAYORDER=
